<svg width="797" height="216" viewBox="0 0 797 216" fill="none" xmlns="http://www.w3.org/2000/svg">
<path d="M286.31 100.87C287.87 100.87 289.49 101.2 291.17 101.86C292.85 102.52 294.47 103.39 296.03 104.47H295.94C297.5 105.55 298.7 107.02 299.54 108.88C300.38 110.74 300.8 112.87 300.8 115.27V127.6C300.8 132.46 299.18 136.09 295.94 138.49C294.38 139.63 292.76 140.53 291.08 141.19C289.46 141.79 287.87 142.09 286.31 142.09H266.69C265.13 142.09 263.51 141.79 261.83 141.19C260.21 140.53 258.62 139.63 257.06 138.49C253.82 136.09 252.2 132.46 252.2 127.6V121.66C252.2 118.84 253.97 117.43 257.51 117.43C261.11 117.43 262.91 118.84 262.91 121.66V126.88C262.91 128.44 263.36 129.85 264.26 131.11C265.16 132.37 266.72 133 268.94 133H284.06C286.28 133 287.84 132.37 288.74 131.11C289.64 129.85 290.09 128.44 290.09 126.88V115.99C290.09 114.49 289.64 113.11 288.74 111.85C287.84 110.53 286.28 109.87 284.06 109.87H266.69C263.57 109.87 260.36 108.73 257.06 106.45C253.82 103.93 252.2 100.3 252.2 95.56V84.85C252.2 82.45 252.62 80.35 253.46 78.55C254.3 76.69 255.5 75.19 257.06 74.05H256.97C258.53 73.03 260.15 72.19 261.83 71.53C263.51 70.87 265.13 70.54 266.69 70.54H286.31C287.87 70.54 289.49 70.87 291.17 71.53C292.85 72.19 294.47 73.03 296.03 74.05H295.94C297.5 75.19 298.7 76.69 299.54 78.55C300.38 80.35 300.8 82.45 300.8 84.85V90.16C300.8 92.98 299 94.39 295.4 94.39C291.86 94.39 290.09 92.98 290.09 90.16V85.66C290.09 84.16 289.64 82.78 288.74 81.52C287.84 80.26 286.28 79.63 284.06 79.63H268.94C266.72 79.63 265.16 80.26 264.26 81.52C263.36 82.78 262.91 84.16 262.91 85.66V94.84C262.91 96.4 263.36 97.81 264.26 99.07C265.16 100.27 266.72 100.87 268.94 100.87H286.31ZM325.934 96.28V129.04C325.934 130.6 326.264 131.8 326.924 132.64C327.584 133.48 328.994 133.9 331.154 133.9H333.494C335.834 133.9 336.944 135.28 336.824 138.04C336.824 140.86 335.714 142.27 333.494 142.27H330.524C328.604 142.27 326.804 142.03 325.124 141.55C323.444 141.01 321.824 140.26 320.264 139.3V139.39C317.324 137.47 315.854 134.05 315.854 129.13V96.28H312.344C310.184 96.28 309.044 94.87 308.924 92.05C308.924 89.23 310.064 87.82 312.344 87.82H315.854V78.19C315.854 75.31 317.564 73.87 320.984 73.87C324.284 73.87 325.934 75.31 325.934 78.19V87.82H333.404C335.744 87.82 336.854 89.23 336.734 92.05C336.734 94.87 335.624 96.28 333.404 96.28H325.934ZM387.932 127.69C387.932 130.09 387.512 132.22 386.672 134.08C385.832 135.94 384.632 137.44 383.072 138.58H383.162C381.662 139.6 380.072 140.44 378.392 141.1C376.712 141.7 375.092 142 373.532 142H359.042C357.542 142 355.922 141.7 354.182 141.1C352.502 140.44 350.912 139.6 349.412 138.58H349.502C347.942 137.44 346.742 135.94 345.902 134.08C345.062 132.22 344.642 130.09 344.642 127.69V91.6C344.642 88.72 346.292 87.28 349.592 87.28C352.892 87.28 354.542 88.72 354.542 91.6V126.97C354.542 128.65 354.962 130.12 355.802 131.38C356.582 132.82 358.202 133.54 360.662 133.54H371.912C374.312 133.54 375.902 132.82 376.682 131.38L376.592 131.47C377.552 130.03 378.032 128.53 378.032 126.97V91.6C378.032 88.72 379.682 87.28 382.982 87.28C386.282 87.28 387.932 88.72 387.932 91.6V127.69ZM432.612 96.28H415.242C412.782 96.28 411.162 97 410.382 98.44C409.542 99.7 409.122 101.17 409.122 102.85V128.77C409.122 130.33 409.602 131.53 410.562 132.37C411.522 133.15 413.112 133.54 415.332 133.54H424.602C426.762 133.54 427.842 134.95 427.842 137.77C427.842 138.97 427.572 139.99 427.032 140.83C426.552 141.61 425.742 142 424.602 142H413.712C409.932 142 406.572 141.04 403.632 139.12C400.692 137.32 399.222 133.9 399.222 128.86V102.04C399.222 99.58 399.612 97.45 400.392 95.65C401.172 93.85 402.402 92.38 404.082 91.24C407.262 88.96 410.442 87.82 413.622 87.82H432.612V74.32C432.612 71.44 434.262 70 437.562 70C440.862 70 442.512 71.44 442.512 74.32V138.22C442.512 141.1 440.862 142.54 437.562 142.54C436.302 142.54 435.162 142.33 434.142 141.91C433.122 141.43 432.612 140.41 432.612 138.85V96.28ZM457.297 154.6C455.197 154.6 454.087 153.19 453.967 150.37C453.967 147.55 455.077 146.14 457.297 146.14H461.257C463.357 146.14 464.737 145.51 465.397 144.25L466.657 140.92L467.107 139.48L449.557 93.49V93.58C449.077 92.14 449.167 90.91 449.827 89.89C450.547 88.87 451.627 88.12 453.067 87.64C454.147 87.34 455.017 87.19 455.677 87.19C457.417 87.19 458.497 88.21 458.917 90.25L466.027 107.98L472.057 122.74L481.687 90.43C482.227 88.27 483.487 87.19 485.467 87.19C485.947 87.19 486.727 87.34 487.807 87.64C489.247 88.06 490.267 88.75 490.867 89.71C491.527 90.67 491.677 91.81 491.317 93.13C488.617 102.31 485.857 111.55 483.037 120.85C480.277 130.15 477.547 139.36 474.847 148.48C474.547 149.14 474.067 149.8 473.407 150.46C472.807 151.18 471.997 151.84 470.977 152.44C469.957 153.1 468.697 153.61 467.197 153.97C465.697 154.39 463.957 154.6 461.977 154.6H457.297ZM512.658 134.62C512.658 136.66 511.968 138.4 510.588 139.84C509.208 141.22 507.498 141.91 505.458 141.91C503.418 141.91 501.708 141.22 500.328 139.84C498.948 138.4 498.258 136.66 498.258 134.62C498.258 132.64 498.948 130.96 500.328 129.58C501.708 128.14 503.418 127.42 505.458 127.42C507.498 127.42 509.208 128.14 510.588 129.58C511.968 130.96 512.658 132.64 512.658 134.62Z" fill="black"/>
<path d="M538.144 142C536.284 142 534.514 141.76 532.834 141.28C531.154 140.74 529.534 139.99 527.974 139.03V139.12C525.034 137.26 523.564 133.84 523.564 128.86V124.45C523.564 121.99 523.984 119.86 524.824 118.06C525.724 116.2 526.954 114.73 528.514 113.65H528.424C529.924 112.63 531.514 111.88 533.194 111.4C534.874 110.86 536.494 110.59 538.054 110.59H557.944V102.22C557.944 100.72 557.464 99.37 556.504 98.17C555.604 96.91 554.044 96.28 551.824 96.28H541.294C539.014 96.28 537.424 96.85 536.524 97.99C535.684 99.07 535.264 100.36 535.264 101.86V102.58C535.264 105.7 533.584 107.26 530.224 107.26C526.864 107.26 525.184 105.7 525.184 102.58V101.77C525.184 99.31 525.604 97.24 526.444 95.56C527.344 93.88 528.544 92.47 530.044 91.33H529.954C531.514 90.31 533.134 89.47 534.814 88.81C536.554 88.15 538.204 87.82 539.764 87.82H553.444C554.944 87.82 556.534 88.15 558.214 88.81C559.954 89.47 561.574 90.31 563.074 91.33H562.984C564.544 92.47 565.744 93.97 566.584 95.83C567.424 97.63 567.844 99.73 567.844 102.13V138.22C567.844 141.1 566.194 142.54 562.894 142.54C562.234 142.54 561.604 142.51 561.004 142.45C560.464 142.39 559.954 142.24 559.474 142C559.054 141.7 558.694 141.31 558.394 140.83C558.154 140.29 558.034 139.6 558.034 138.76L557.944 119.05H539.764C538.444 119.05 537.424 119.2 536.704 119.5C535.984 119.8 535.414 120.28 534.994 120.94C534.514 121.96 534.154 122.77 533.914 123.37C533.734 123.91 533.644 124.54 533.644 125.26V128.77C533.644 130.33 534.094 131.53 534.994 132.37C535.954 133.15 537.574 133.54 539.854 133.54H549.934C552.154 133.54 553.264 134.95 553.264 137.77C553.264 138.97 552.994 139.99 552.454 140.83C551.914 141.61 551.074 142 549.934 142H538.144ZM589.656 138.22C589.656 141.1 588.006 142.54 584.706 142.54C581.346 142.54 579.666 141.1 579.666 138.22V91.78C579.666 88.9 581.346 87.46 584.706 87.46C588.006 87.46 589.656 88.9 589.656 91.78V138.22ZM591.546 76.12C591.546 78.04 590.886 79.66 589.566 80.98C588.246 82.3 586.626 82.96 584.706 82.96C582.786 82.96 581.136 82.3 579.756 80.98C578.436 79.66 577.776 78.04 577.776 76.12C577.776 74.14 578.436 72.49 579.756 71.17C581.136 69.85 582.786 69.19 584.706 69.19C586.626 69.19 588.246 69.85 589.566 71.17C590.886 72.49 591.546 74.14 591.546 76.12Z" fill="#00BB4B"/>
<path d="M99 71.9999H117V80.9999H99V71.9999ZM99 35.9999H117V44.9999H99V35.9999ZM99 89.9999H117V98.9999H99V89.9999Z" fill="black"/>
<path d="M189 108V81C161.562 80.9913 134.978 90.538 113.814 108H102.186C81.0221 90.538 54.4378 80.9913 27 81V108C24.6131 108 22.3239 108.948 20.636 110.636C18.9482 112.324 18 114.613 18 117V135C18 137.387 18.9482 139.676 20.636 141.364C22.3239 143.052 24.6131 144 27 144V180C57.0791 179.97 86.0411 191.394 108 211.95C129.983 191.433 158.929 180.015 189 180V144C191.387 144 193.676 143.052 195.364 141.364C197.052 139.676 198 137.387 198 135V117C198 114.613 197.052 112.324 195.364 110.636C193.676 108.948 191.387 108 189 108Z" fill="url(#paint0_linear_301_44)"/>
<path d="M81 45C85.9706 45 90 40.9706 90 36C90 31.0294 85.9706 27 81 27C76.0294 27 72 31.0294 72 36C72 40.9706 76.0294 45 81 45Z" fill="black"/>
<path d="M135 45C139.971 45 144 40.9706 144 36C144 31.0294 139.971 27 135 27C130.029 27 126 31.0294 126 36C126 40.9706 130.029 45 135 45Z" fill="black"/>
<path d="M144 72H72C64.8414 71.9929 57.9779 69.1459 52.916 64.084C47.8541 59.0221 45.0071 52.1587 45 45V27C45.0071 19.8413 47.8541 12.9779 52.916 7.91601C57.9779 2.85408 64.8414 0.00714794 72 0L144 0C151.159 0.00714794 158.022 2.85408 163.084 7.91601C168.146 12.9779 170.993 19.8413 171 27V45C170.993 52.1587 168.146 59.0221 163.084 64.084C158.022 69.1459 151.159 71.9929 144 72ZM72 18C69.6131 18 67.3239 18.9482 65.636 20.636C63.9482 22.3239 63 24.6131 63 27V45C63 47.3869 63.9482 49.6761 65.636 51.364C67.3239 53.0518 69.6131 54 72 54H144C146.387 54 148.676 53.0518 150.364 51.364C152.052 49.6761 153 47.3869 153 45V27C153 24.6131 152.052 22.3239 150.364 20.636C148.676 18.9482 146.387 18 144 18H72Z" fill="black"/>
<defs>
<linearGradient id="paint0_linear_301_44" x1="108" y1="81" x2="108" y2="211.95" gradientUnits="userSpaceOnUse">
<stop stop-color="#00BB4B"/>
<stop offset="1" stop-color="#CEF6FF"/>
</linearGradient>
</defs>
</svg>
